<?xml version="1.0" standalone="no"?>
<!DOCTYPE svg PUBLIC "-//W3C//DTD SVG 20010904//EN"
 "http://www.w3.org/TR/2001/REC-SVG-20010904/DTD/svg10.dtd">
<svg version="1.0" xmlns="http://www.w3.org/2000/svg"
 width="700.000000pt" height="700.000000pt" viewBox="0 0 700.000000 700.000000"
 preserveAspectRatio="xMidYMid meet">
<metadata>
Created by potrace 1.11, written by Peter Selinger 2001-2013
</metadata>
<g transform="translate(0.000000,700.000000) scale(0.100000,-0.100000)"
fill="#000000" stroke="none">
<path d="M6435 6990 c-138 -21 -143 -22 -260 -49 -333 -78 -657 -235 -832
-402 -58 -56 -253 -257 -498 -514 -265 -277 -235 -252 -286 -249 -24 1 -127 5
-229 9 -102 4 -219 9 -260 10 -41 2 -120 6 -175 9 -55 3 -179 8 -276 11 -149
5 -188 8 -218 14 -2 1 23 26 54 57 92 90 116 172 76 259 -11 25 -82 103 -187
208 -144 143 -176 170 -216 182 -54 16 -106 12 -151 -12 -36 -18 -647 -626
-647 -643 0 -11 -69 -10 -465 5 -697 27 -1124 35 -1230 23 -187 -22 -353 -120
-405 -240 -79 -180 35 -351 309 -465 29 -12 144 -46 254 -74 241 -61 723 -199
1202 -344 193 -58 357 -108 365 -110 8 -2 35 -10 60 -18 25 -9 225 -70 445
-137 220 -68 406 -125 412 -129 8 -4 -7 -27 -45 -68 -31 -33 -107 -114 -169
-179 -61 -66 -132 -141 -158 -169 -26 -27 -109 -115 -184 -194 -181 -192 -193
-205 -334 -355 -67 -71 -140 -148 -162 -171 -22 -23 -96 -102 -165 -175 -69
-73 -147 -157 -175 -186 -27 -29 -73 -77 -102 -107 -28 -30 -68 -80 -89 -111
l-37 -57 -66 6 c-36 4 -77 8 -91 10 -14 2 -61 7 -104 10 -44 4 -87 8 -95 10
-9 1 -54 6 -101 10 -47 3 -101 8 -120 10 -19 2 -64 7 -100 10 -36 3 -87 7
-115 10 -27 2 -81 7 -120 9 -38 3 -104 8 -145 12 -377 29 -495 -1 -571 -148
-43 -83 -31 -231 28 -340 36 -66 97 -125 228 -223 153 -113 581 -394 763 -502
25 -14 36 -28 34 -40 -2 -10 -5 -73 -7 -140 -3 -102 -6 -125 -22 -142 -36 -38
-114 -178 -120 -214 -5 -33 -3 -37 16 -37 34 0 88 26 178 87 l85 56 106 2 c59
1 119 5 133 9 24 7 29 3 50 -33 89 -153 409 -639 511 -776 41 -55 95 -120 120
-145 86 -86 196 -129 319 -126 136 5 228 79 264 215 12 47 13 216 1 371 -11
149 -16 204 -21 265 -3 33 -7 80 -10 105 -2 25 -6 81 -10 125 -3 44 -8 96 -10
115 -2 19 -7 64 -10 100 -8 86 -13 135 -20 190 -2 25 -7 73 -10 107 l-6 62 53
34 c29 18 71 51 93 71 22 21 101 95 175 165 74 71 153 145 175 166 22 20 96
90 165 155 69 65 143 135 165 155 22 21 103 97 180 170 77 73 156 147 175 165
19 18 102 96 184 174 82 77 168 159 192 181 23 22 77 73 119 113 42 39 79 72
83 72 4 0 33 -87 65 -193 32 -105 80 -264 107 -352 88 -289 301 -998 331
-1100 16 -55 40 -136 53 -180 13 -44 36 -118 50 -165 14 -47 61 -211 105 -365
86 -301 111 -372 165 -470 60 -110 133 -185 216 -223 181 -84 362 45 426 303
11 48 20 146 18 220 -2 123 -15 550 -19 645 -2 47 -6 168 -10 270 -3 102 -8
228 -10 280 -3 52 -7 156 -10 231 l-5 137 25 16 c47 31 623 613 641 647 27 52
23 139 -8 186 -43 64 -330 344 -373 364 -88 40 -165 17 -262 -80 -62 -61 -63
-62 -64 -34 -1 15 -2 51 -4 78 -1 28 -5 124 -9 215 -4 91 -9 212 -11 270 -2
58 -7 164 -10 235 -3 72 -8 188 -10 259 l-6 128 78 75 c43 41 140 134 217 206
487 464 537 516 624 659 138 225 256 568 295 858 8 60 14 163 12 240 -3 209
-40 284 -162 330 -49 20 -80 23 -203 25 -80 1 -167 -1 -195 -5z"/>
</g>
</svg>
